{"title":"School Dance.2014.720p.WEB-DL.x264-N3kr4","uid":10491434,"size":881412791,"categoryP":"video","categoryS":"hd___movies","magnet":"?xt=urn:btih:bb420b91f0827a9393a3e6767eac8a6487b1f608&amp;dn=School+Dance.2014.720p.WEB-DL.x264-N3kr4&amp;tr=udp%3A%2F%2Ftracker.openbittorrent.com%3A80&amp;tr=udp%3A%2F%2Fopen.demonii.com%3A1337&amp;tr=udp%3A%2F%2Ftracker.coppersurfer.tk%3A6969&amp;tr=udp%3A%2F%2Fexodus.desync.com%3A6969","seeders":7,"leechers":0,"uploader":"Falcon.G13","files":2,"time":1404554459,"description":"School Dance (2014)\n\n 85 min - Comedy | Drama | Music - 2 July 2014 (USA)\n4.0 Your rating: -/10 Ratings: 4.0/10 from 137 users \nReviews: 2 user\n\nHigh schooler Jason has found his dream girl-the gorgeous Anastacia. There's just one problem: she doesn't know he exists. If he can WIN a spot on the school's hottest dance crew, Jason ...\n &lt;a href=&quot;\nhttp://i.imgur.com/lUF1eSH.jpg&quot; rel=&quot;nofollow&quot; target=&quot;_NEW&quot;&gt;\nhttp://i.imgur.com/lUF1eSH.jpg&lt;/a&gt; &lt;a href=&quot;\nhttp://i.imgur.com/FD4Ewcx.jpg&quot; rel=&quot;nofollow&quot; target=&quot;_NEW&quot;&gt;\nhttp://i.imgur.com/FD4Ewcx.jpg&lt;/a&gt; &lt;a href=&quot;\nhttp://i.imgur.com/83qmgZ2.jpg&quot; rel=&quot;nofollow&quot; target=&quot;_NEW&quot;&gt;\nhttp://i.imgur.com/83qmgZ2.jpg&lt;/a&gt; &lt;a href=&quot;\nhttp://i.imgur.com/b0pc1sN.jpg&quot; rel=&quot;nofollow&quot; target=&quot;_NEW&quot;&gt;\nhttp://i.imgur.com/b0pc1sN.jpg&lt;/a&gt; &lt;a href=&quot;\nhttp://i.imgur.com/DPtTO1A.jpg&quot; rel=&quot;nofollow&quot; target=&quot;_NEW&quot;&gt;\nhttp://i.imgur.com/DPtTO1A.jpg&lt;/a&gt; &lt;a href=&quot;\nhttp://i.imgur.com/6ti2rkR.jpg&quot; rel=&quot;nofollow&quot; target=&quot;_NEW&quot;&gt;\nhttp://i.imgur.com/6ti2rkR.jpg&lt;/a&gt;\n\nGeneral\nComplete name : School Dance.2014.720p.WEB-DL.x264-N3kr4.mp4\nFormat : MPEG-4\nFormat profile : Base Media\nCodec ID : isom\nFile size : 840 MiB\nDuration : 1h 26mn\nOverall bit rate : 1 364 Kbps\nWriting application : Lavf55.7.100\n\nVideo\nID : 1\nFormat : AVC\nFormat/Info : Advanced Video Codec\nFormat profile : &lt;a class=&quot;__cf_email__&quot; href=&quot;/cdn-cgi/l/email-protection&quot; data-cfemail=&quot;efa28e8681afa3dbc1df&quot;&gt;[email&amp;#160;protected]&lt;/a&gt;&lt;script cf-hash='f9e31' type=&quot;text/javascript&quot;&gt;\n/* &lt;![CDATA[ */!function(){try{var t=&quot;currentScript&quot;in document?document.currentScript:function(){for(var t=document.getElementsByTagName(&quot;script&quot;),e=t.length;e--;)if(t[e].getAttribute(&quot;cf-hash&quot;))return t[e]}();if(t&amp;&amp;t.previousSibling){var e,r,n,i,c=t.previousSibling,a=c.getAttribute(&quot;data-cfemail&quot;);if(a){for(e=&quot;&quot;,r=parseInt(a.substr(0,2),16),n=2;a.length-n;n+=2)i=parseInt(a.substr(n,2),16)^r,e+=String.fromCharCode(i);e=document.createTextNode(e),c.parentNode.replaceChild(e,c)}}}catch(u){}}();/* ]]&gt; */&lt;/script&gt;\nFormat settings, CABAC : Yes\nFormat settings, ReFrames : 3 frames\nCodec ID : avc1\nCodec ID/Info : Advanced Video Coding\nDuration : 1h 26mn\nBit rate : 975 Kbps\nWidth : 1 280 pixels\nHeight : 720 pixels\nDisplay aspect ratio : 16:9\nFrame rate mode : Constant\nFrame rate : 23.976 fps\nColor space : YUV\nChroma subsampling : 4:2:0\nBit depth : 8 bits\nScan type : Progressive\nBits/(Pixel*Frame) : 0.044\nStream size : 601 MiB (71%)\nLanguage : English\n\nAudio\nID : 2\nFormat : AC-3\nFormat/Info : Audio Coding 3\nMode extension : CM (complete main)\nFormat settings, Endianness : Big\nCodec ID : ac-3\nDuration : 1h 26mn\nBit rate mode : Constant\nBit rate : 384 Kbps\nChannel(s) : 6 channels\nChannel positions : Front: L C R, Side: L R, LFE\nSampling rate : 48.0 KHz\nBit depth : 16 bits\nCompression mode : Lossy\nStream size : 237 MiB (28%)\nLanguage : English\n","torrent":{"xt":"urn:btih:bb420b91f0827a9393a3e6767eac8a6487b1f608","amp;dn":"School+Dance.2014.720p.WEB-DL.x264-N3kr4","amp;tr":["udp%3A%2F%2Ftracker.openbittorrent.com%3A80","udp%3A%2F%2Fopen.demonii.com%3A1337","udp%3A%2F%2Ftracker.coppersurfer.tk%3A6969","udp%3A%2F%2Fexodus.desync.com%3A6969"],"infoHash":"bb420b91f0827a9393a3e6767eac8a6487b1f608","infoHashBuffer":{"type":"Buffer","data":[187,66,11,145,240,130,122,147,147,163,230,118,126,172,138,100,135,177,246,8]},"announce":[],"urlList":[]}}